<svg xmlns="http://www.w3.org/2000/svg" xmlns:xlink="http://www.w3.org/1999/xlink" width="155" height="80"><defs><path id="a" d="M0 .246h9.587v9.087H0z"/></defs><g fill="none" fill-rule="evenodd"><path d="M140.333 79.469l-4.032.212s14.503-19.1 3.303-33.814C125.993 27.987 59.299 1.166 59.299 1.166L64.94 0s74.384 25.839 87.11 44.533c10.404 15.282-11.717 34.936-11.717 34.936zM122.38 60.546l-4.47.384s8.447-8.001 3.921-13.155c-4.829-5.499-28.386-11.792-28.386-11.792l5-.666s30.33 5.22 35.119 11.2c4.466 5.577-11.184 14.029-11.184 14.029z" fill="#fff" opacity=".201"/><g transform="translate(0 47.929)"><mask id="b" fill="#fff"><use xlink:href="#a"/></mask><path d="M7.447.458h2.14l-1.2 8.662H6.264l.129-.941c-.462.429-.893.729-1.294.898s-.85.255-1.349.255c-1.146 0-2.058-.421-2.735-1.263S0 6.248 0 5.131c0-.852.216-1.664.649-2.434S1.664 1.325 2.394.893A4.43 4.43 0 014.683.246a3.07 3.07 0 011.48.365c.452.243.824.598 1.118 1.064L7.447.458zM4.251 7.44c.523 0 .98-.117 1.369-.349s.717-.598.981-1.095.396-1.005.396-1.523c0-.682-.199-1.231-.597-1.647s-.922-.623-1.574-.623a2.56 2.56 0 00-1.929.833c-.529.555-.793 1.272-.793 2.15 0 .677.2 1.222.601 1.635s.915.619 1.546.619z" fill="#199be6" mask="url(#b)"/></g><path d="M10.734 48.387h2.1l1.354 4.817 2.78-4.817h2.313l-5.018 8.662h-1.061zm11.428-3.54c.361 0 .67.129.927.386s.386.567.386.927-.129.67-.386.927-.567.386-.927.386-.67-.129-.927-.386-.386-.567-.386-.927.129-.67.386-.927.567-.386.927-.386zm-1.452 3.54h2.124l-1.183 8.662h-2.124l1.183-8.662zm8.088-.212c.769 0 1.469.177 2.098.532s1.119.858 1.469 1.509.525 1.382.525 2.192a4.64 4.64 0 01-1.441 3.435c-.961.945-2.15 1.418-3.567 1.418-1.232 0-2.214-.372-2.946-1.116s-1.099-1.717-1.099-2.919c0-1.451.496-2.656 1.489-3.614s2.15-1.438 3.472-1.438m-.155 2.023c-.871 0-1.539.311-2.004.933s-.697 1.296-.697 2.021c0 .646.19 1.166.57 1.56s.886.592 1.518.592c.897 0 1.581-.301 2.052-.901s.706-1.288.706-2.061c0-.635-.2-1.152-.598-1.549s-.914-.595-1.546-.595m6.705-1.81h2.124l-.122.888c.815-.733 1.661-1.1 2.54-1.1.751 0 1.366.237 1.845.711s.718 1.071.718 1.791c0 .339-.045.845-.135 1.517l-.663 4.855h-2.124l.647-4.739.096-1.093c0-.348-.1-.616-.3-.804s-.484-.281-.852-.281c-.358 0-.715.123-1.073.369s-.633.588-.825 1.026-.368 1.258-.528 2.461l-.408 3.061h-2.124l1.183-8.662zm10.969-3.54c.361 0 .67.129.927.386s.386.567.386.927-.129.67-.386.927-.566.386-.927.386-.67-.129-.927-.386-.386-.567-.386-.927.129-.67.386-.927.567-.386.927-.386zm-1.452 3.54h2.124l-1.183 8.662h-2.124l1.183-8.662zm12.091 1.799l-1.8.978c-.511-.644-1.195-.966-2.056-.966-.579 0-1.092.122-1.537.368a2.74 2.74 0 00-1.068 1.065 2.917 2.917 0 00-.399 1.473c0 .665.21 1.198.63 1.599s.995.602 1.728.602c1.015 0 1.793-.341 2.334-1.021l1.673 1.179c-.473.563-1.061 1.004-1.764 1.322s-1.487.478-2.352.478c-1.348 0-2.41-.371-3.188-1.112s-1.166-1.721-1.166-2.939c0-1.393.48-2.58 1.441-3.562s2.197-1.473 3.71-1.473c1.704 0 2.974.67 3.813 2.011" fill="#199be6"/><path d="M70.922 45.043h2.14L71.406 57.05h-2.124l.128-.936c-.463.428-.896.726-1.297.895a3.46 3.46 0 01-1.353.253c-1.149 0-2.063-.421-2.741-1.263s-1.018-1.821-1.018-2.939c0-.852.217-1.664.651-2.434a4.76 4.76 0 011.747-1.803c.731-.431 1.496-.647 2.294-.647.536 0 1.03.122 1.483.368s.826.604 1.12 1.073l.625-4.574zM67.253 55.37c.523 0 .979-.117 1.369-.35s.717-.598.981-1.095S70 52.919 70 52.4c0-.682-.199-1.23-.597-1.645s-.922-.622-1.574-.622a2.56 2.56 0 00-1.93.833c-.529.555-.793 1.272-.793 2.15 0 .677.201 1.222.601 1.635s.915.619 1.546.619zm12.906-.865l1.874.969a4.34 4.34 0 01-1.669 1.307c-.693.32-1.461.48-2.306.48-1.322 0-2.364-.371-3.126-1.112s-1.143-1.727-1.143-2.955c0-1.404.476-2.591 1.43-3.562a4.66 4.66 0 013.452-1.458c.812 0 1.535.177 2.169.532s1.135.87 1.501 1.546a4.56 4.56 0 01.549 2.205c0 .249-.026.539-.08.873h-6.918c.021.602.219 1.082.594 1.438s.892.536 1.551.536a3.15 3.15 0 002.121-.799zm.546-2.725c-.16-.525-.425-.923-.798-1.193s-.822-.406-1.349-.406c-.521 0-.992.139-1.413.417s-.74.672-.958 1.181h4.518zm9.344-2.176l-1.007 1.62c-.259-.386-.532-.669-.817-.852s-.553-.273-.801-.273c-.191 0-.352.053-.484.159s-.198.225-.198.357.053.254.159.381c.1.127.404.373.911.739.809.582 1.341 1.081 1.597 1.496a2.53 2.53 0 01.384 1.354c0 .64-.264 1.247-.792 1.818s-1.294.857-2.297.857a3.53 3.53 0 01-1.581-.351c-.475-.233-1.005-.661-1.588-1.282l1.313-1.529c.594.781 1.244 1.172 1.95 1.172.281 0 .506-.067.673-.202a.6.6 0 00.25-.48c0-.148-.064-.3-.19-.456s-.474-.435-1.041-.836c-.657-.466-1.11-.865-1.36-1.198-.349-.465-.524-.957-.524-1.475 0-.724.275-1.314.824-1.768s1.198-.682 1.946-.682a3.17 3.17 0 011.496.373 3.26 3.26 0 011.177 1.056m3.605-4.755c.361 0 .67.129.927.386s.386.567.386.927-.129.67-.386.927-.566.386-.927.386-.67-.129-.927-.386-.386-.567-.386-.927.129-.67.386-.927.566-.386.927-.386zm-1.452 3.54h2.124l-1.183 8.662H91.02l1.183-8.662zm10.674 0H105l-.984 6.955c-.189 1.36-.384 2.261-.584 2.704-.313.685-.84 1.253-1.58 1.704s-1.669.676-2.788.676c-.929 0-1.738-.176-2.427-.528s-1.203-.807-1.544-1.363l1.866-.953c.56.569 1.287.854 2.184.854.522 0 .972-.092 1.353-.277s.676-.434.889-.748.361-.78.448-1.397c-.788.69-1.681 1.035-2.681 1.035a3.77 3.77 0 01-1.927-.513c-.59-.342-1.053-.823-1.389-1.443s-.505-1.31-.505-2.068a4.66 4.66 0 01.661-2.405 4.9 4.9 0 011.799-1.786 4.677 4.677 0 012.379-.66c.5 0 .955.097 1.362.291s.808.521 1.199.98l.145-1.059zm-2.631 1.795c-.794 0-1.464.269-2.009.808s-.818 1.201-.818 1.988c0 .639.203 1.151.608 1.536s.948.578 1.628.578a2.9 2.9 0 001.413-.354 2.596 2.596 0 001.027-1.015 2.82 2.82 0 00.378-1.425c0-.607-.208-1.111-.624-1.513s-.951-.602-1.603-.602zm6.908-1.795h2.123l-.121.888c.815-.733 1.661-1.1 2.54-1.1.751 0 1.366.237 1.845.711s.718 1.071.718 1.791c0 .339-.045.845-.135 1.517l-.663 4.855h-2.124l.647-4.739.095-1.093c0-.348-.1-.616-.299-.804s-.484-.281-.852-.281c-.358 0-.715.123-1.073.369s-.632.588-.824 1.026-.369 1.258-.529 2.461l-.408 3.061h-2.123l1.183-8.662z" fill="#fff"/></g></svg>